<?xml version="1.0" standalone="no"?><!DOCTYPE svg PUBLIC "-//W3C//DTD SVG 1.1//EN" "http://www.w3.org/Graphics/SVG/1.1/DTD/svg11.dtd"><svg t="1735568826613" class="icon" viewBox="0 0 1024 1024" version="1.1" xmlns="http://www.w3.org/2000/svg" p-id="10063" xmlns:xlink="http://www.w3.org/1999/xlink" width="200" height="200"><path d="M512 64C264.6 64 64 264.5 64 512s200.6 448 448 448 448-200.5 448-448S759.4 64 512 64z m0 699.4c-26.1 0-47.2-21.2-47.2-47.2 0-26.1 21.1-47.3 47.2-47.3s47.2 21.2 47.2 47.3c0 26-21.1 47.2-47.2 47.2z m79.8-452.5l-40.1 249.3c-5.4 32.4-23.2 58.9-39.7 58.9s-34.3-26.5-39.7-58.9l-40.1-249.3c-5.4-32.4 17.1-67.7 49.9-67.7h59.7c32.9 0 55.4 35.2 50 67.7z" fill="#d81e06" p-id="10064"></path></svg>