<?xml version="1.0" standalone="no"?><!DOCTYPE svg PUBLIC "-//W3C//DTD SVG 1.1//EN" "http://www.w3.org/Graphics/SVG/1.1/DTD/svg11.dtd"><svg t="1735551392656" class="icon" viewBox="0 0 1048 1024" version="1.1" xmlns="http://www.w3.org/2000/svg" p-id="1909" xmlns:xlink="http://www.w3.org/1999/xlink" width="204.6875" height="200"><path d="M724.967619 17.67619a30.47619 30.47619 0 0 1 35.352381 3.072l2.364952 2.267429 68.973715 73.337905a30.47619 30.47619 0 0 1-42.008381 44.032l-2.413715-2.29181L735.329524 82.895238l-5.485714 3.486476c-8.874667 5.656381-18.310095 11.776-28.233143 18.358857l-10.069334 6.753524a1745.066667 1745.066667 0 0 0-142.628571 106.496 1188.449524 1188.449524 0 0 0-69.241905 62.268953 30.47619 30.47619 0 1 1-42.617905-43.593143 1248.889905 1248.889905 0 0 1 72.777143-65.462857 1804.921905 1804.921905 0 0 1 147.675429-110.275048l20.48-13.628952c6.631619-4.315429 13.019429-8.46019 19.163428-12.361143l19.017143-11.946667c3.82781-2.31619 6.777905-4.120381 8.777143-5.290667zM596.943238 256.390095l195.047619 195.047619-43.105524 43.105524-195.047619-195.047619z" fill="#ffffff" p-id="1910"></path><path d="M890.514286 39.643429l-1.414096 0.658285C634.270476 165.961143 420.815238 361.642667 276.23619 601.84381l-12.458666 20.723809 165.790476 161.304381 19.894857-11.337143C696.32 632.027429 897.80419 424.350476 1027.169524 176.542476c15.945143-34.596571 5.851429-80.505905-21.138286-106.788571l-9.289143-9.045334c-26.624-25.892571-72.801524-35.474286-106.203428-21.065142z m63.707428 64.755809l9.167238 8.923429c9.118476 8.899048 13.190095 27.355429 9.045334 36.376381l-7.631238 14.384762c-118.369524 220.16-297.862095 407.28381-516.729905 538.672761l-9.045333 5.315048-97.962667-95.329524 4.656762-7.43619C480.841143 392.533333 673.255619 218.136381 901.144381 102.424381l13.775238-6.924191-0.26819 0.121905c10.24-4.437333 30.232381-0.292571 39.570285 8.777143zM202.752 783.018667l43.105524 43.105523-175.542857 175.542858-43.105524-43.105524z" fill="#ffffff" p-id="1911"></path><path d="M231.619048 641.77981l30.963809 52.516571-143.579428 84.675048 0.316952 4.583619c2.389333 44.324571-4.534857 90.721524-17.749333 136.825904l-3.657143 12.239238 3.584-0.975238c48.469333-13.287619 97.426286-20.918857 144.262095-20.138666l11.678476 0.390095 7.119238 0.414476 90.428953-135.801905 50.712381 33.792-110.957715 166.692572-18.748952-2.364953a275.748571 275.748571 0 0 0-21.455238-1.852952c-43.081143-2.048-90.112 4.827429-136.94781 17.65181-11.605333 3.169524-22.479238 6.534095-32.426666 9.898666l-13.604572 4.827429-7.94819 3.072-18.261334 7.631238-33.596952-31.622095 9.435429-20.016762c0.853333-1.80419 2.364952-5.241905 4.388571-10.118095l1.219048-3.072c4.461714-11.117714 8.94781-23.600762 13.116952-37.10781 13.458286-43.568762 20.699429-87.28381 18.529524-127.097905a231.838476 231.838476 0 0 0-1.072762-13.360762l-0.828952-6.509714-2.901334-20.187429 177.980953-104.98438z" fill="#ffffff" p-id="1912"></path></svg>