<?xml version="1.0" standalone="no"?><!DOCTYPE svg PUBLIC "-//W3C//DTD SVG 1.1//EN" "http://www.w3.org/Graphics/SVG/1.1/DTD/svg11.dtd"><svg t="1735565549952" class="icon" viewBox="0 0 1024 1024" version="1.1" xmlns="http://www.w3.org/2000/svg" p-id="9090" xmlns:xlink="http://www.w3.org/1999/xlink" width="200" height="200"><path d="M938.674 789.326c8.526-17.052 17.052-29.852 25.6-46.926 4.252-4.274 4.252-8.526 4.252-12.8 4.274-12.8 12.8-25.6 17.074-38.4 4.274-4.274 4.274-8.526 4.274-17.074 4.252-12.8 8.526-25.6 12.8-34.126 0-4.274 4.252-12.8 4.252-17.074 4.274-12.8 4.274-25.6 8.548-38.4 0-4.252 4.252-12.8 4.252-17.052C1024 550.4 1024 529.074 1024 512 1024 230.4 793.6 0 512 0S0 230.4 0 512c0 17.074 0 38.4 4.274 55.474 0 4.252 0 12.8 4.252 17.052 0 12.8 4.274 25.6 4.274 38.4 0 4.274 4.274 12.8 4.274 17.074 4.252 12.8 8.526 25.6 12.8 34.126 0 4.274 4.252 8.548 4.252 17.074C38.4 704 42.674 716.8 51.2 729.6c0 4.274 4.274 8.526 4.274 12.8 8.526 17.074 17.052 29.874 25.6 46.926C170.674 930.126 328.526 1024 507.726 1024S844.8 930.126 938.674 789.326c-4.274 0-4.274 0 0 0zM507.726 243.2c102.4 0 187.748 85.326 187.748 187.726s-85.348 187.748-187.748 187.748S320 533.326 320 430.926 405.326 243.2 507.726 243.2zM196.274 832C251.726 708.274 371.2 627.2 507.726 627.2c136.548 0 256 81.074 311.474 204.8-81.074 76.8-192 128-311.474 128-119.452-4.274-230.4-51.2-311.452-128z" fill="#BFBFBF" p-id="9091"></path></svg>